<mxfile host="app.diagrams.net" modified="2022-07-27T14:09:12.870Z" agent="5.0 (X11; Linux x86_64) AppleWebKit/537.36 (KHTML, like Gecko) Chrome/103.0.0.0 Safari/537.36" etag="sNXhxUKNjkjXhY_ummKQ" version="20.2.1" type="github">
  <diagram id="qeXTaP9J9YP38mxGaQYU" name="Page-1">
    <mxGraphModel dx="1348" dy="773" grid="1" gridSize="10" guides="1" tooltips="1" connect="1" arrows="1" fold="1" page="1" pageScale="1" pageWidth="1169" pageHeight="827" math="0" shadow="0">
      <root>
        <mxCell id="0" />
        <mxCell id="1" parent="0" />
        <mxCell id="ReaQBcY6dgilL2wruTsK-2" value="Snip721" style="rounded=1;whiteSpace=wrap;html=1;" vertex="1" parent="1">
          <mxGeometry x="440" y="442" width="120" height="60" as="geometry" />
        </mxCell>
        <mxCell id="ReaQBcY6dgilL2wruTsK-3" value="2) Check access token" style="edgeStyle=none;rounded=0;orthogonalLoop=1;jettySize=auto;html=1;exitX=0.5;exitY=1;exitDx=0;exitDy=0;entryX=0.5;entryY=0;entryDx=0;entryDy=0;" edge="1" parent="1" source="ReaQBcY6dgilL2wruTsK-4" target="ReaQBcY6dgilL2wruTsK-2">
          <mxGeometry relative="1" as="geometry" />
        </mxCell>
        <mxCell id="ReaQBcY6dgilL2wruTsK-12" value="3) Send access token to Alice for that video" style="edgeStyle=none;rounded=0;orthogonalLoop=1;jettySize=auto;html=1;exitX=0.75;exitY=0;exitDx=0;exitDy=0;" edge="1" parent="1" source="ReaQBcY6dgilL2wruTsK-4">
          <mxGeometry x="-0.6743" y="-93" relative="1" as="geometry">
            <mxPoint x="530" y="299.5" as="sourcePoint" />
            <mxPoint x="510" y="200" as="targetPoint" />
            <mxPoint as="offset" />
          </mxGeometry>
        </mxCell>
        <mxCell id="ReaQBcY6dgilL2wruTsK-4" value="Access Manager" style="rounded=1;whiteSpace=wrap;html=1;" vertex="1" parent="1">
          <mxGeometry x="440" y="332" width="120" height="60" as="geometry" />
        </mxCell>
        <mxCell id="ReaQBcY6dgilL2wruTsK-5" value="Decentralized Storage (IPFS)" style="shape=cylinder3;whiteSpace=wrap;html=1;boundedLbl=1;backgroundOutline=1;size=15;" vertex="1" parent="1">
          <mxGeometry x="140" y="230" width="100" height="140" as="geometry" />
        </mxCell>
        <mxCell id="ReaQBcY6dgilL2wruTsK-6" value="1) I want to see a video" style="edgeStyle=none;rounded=0;orthogonalLoop=1;jettySize=auto;html=1;entryX=0.25;entryY=0;entryDx=0;entryDy=0;" edge="1" parent="1" target="ReaQBcY6dgilL2wruTsK-4">
          <mxGeometry x="-0.1756" y="-39" relative="1" as="geometry">
            <mxPoint x="500" y="200" as="sourcePoint" />
            <mxPoint x="190" y="240" as="targetPoint" />
            <mxPoint as="offset" />
          </mxGeometry>
        </mxCell>
        <mxCell id="ReaQBcY6dgilL2wruTsK-13" value="4) Stream video with access token" style="edgeStyle=none;rounded=0;orthogonalLoop=1;jettySize=auto;html=1;exitX=0;exitY=0.3333333333333333;exitDx=0;exitDy=0;exitPerimeter=0;" edge="1" parent="1" source="ReaQBcY6dgilL2wruTsK-7" target="ReaQBcY6dgilL2wruTsK-5">
          <mxGeometry relative="1" as="geometry" />
        </mxCell>
        <mxCell id="ReaQBcY6dgilL2wruTsK-7" value="Alice" style="shape=umlActor;verticalLabelPosition=bottom;verticalAlign=top;html=1;outlineConnect=0;" vertex="1" parent="1">
          <mxGeometry x="489" y="120" width="30" height="60" as="geometry" />
        </mxCell>
      </root>
    </mxGraphModel>
  </diagram>
</mxfile>
